<?xml version="1.0" standalone="no"?>
<!DOCTYPE svg PUBLIC "-//W3C//DTD SVG 20010904//EN"
 "http://www.w3.org/TR/2001/REC-SVG-20010904/DTD/svg10.dtd">
<svg version="1.0" xmlns="http://www.w3.org/2000/svg"
 width="139.000000pt" height="139.000000pt" viewBox="0 0 139.000000 139.000000"
 preserveAspectRatio="xMidYMid meet">
<metadata>
Created by potrace 1.11, written by Peter Selinger 2001-2013
</metadata>
<g transform="translate(0.000000,139.000000) scale(0.100000,-0.100000)"
fill="#000000" stroke="none">
<path d="M470 1160 c-36 -11 -89 -26 -119 -34 -29 -8 -71 -26 -92 -40 -36 -25
-89 -93 -89 -116 0 -6 -4 -18 -10 -28 -32 -58 -97 -294 -107 -387 -5 -47 -3
-52 21 -64 21 -12 33 -12 63 -2 74 22 169 39 263 46 l95 7 121 119 c66 65 126
119 132 119 7 0 12 -9 12 -20 0 -11 6 -37 14 -57 13 -36 23 -69 61 -204 14
-52 20 -59 88 -106 39 -28 108 -87 152 -132 85 -85 116 -99 147 -63 21 23 81
189 103 282 9 41 21 85 26 98 5 13 9 54 9 93 0 63 -4 76 -34 123 -65 102 -270
296 -312 296 -7 0 -58 -34 -114 -76 -56 -41 -103 -74 -104 -72 -2 2 -7 17 -14
33 -6 17 -25 69 -43 118 l-32 87 -86 -1 c-51 -1 -113 -9 -151 -19z m196 -179
l44 -103 -53 -46 c-28 -25 -85 -79 -126 -119 -74 -73 -75 -73 -140 -79 -36 -3
-99 -15 -138 -25 -40 -11 -75 -19 -78 -19 -7 0 2 51 20 125 12 49 14 51 66 68
101 34 117 38 184 44 76 7 115 31 115 69 0 14 -7 27 -17 31 -19 8 -168 -20
-246 -46 l-57 -18 7 26 c3 14 12 38 19 53 8 15 14 34 14 43 0 22 50 50 123 68
128 33 143 35 181 34 l39 -2 43 -104z m492 -115 c119 -116 117 -111 91 -242
l-13 -66 -56 60 c-55 59 -177 162 -192 162 -4 0 -14 -11 -23 -24 -23 -34 -9
-58 65 -114 36 -28 91 -77 124 -110 l58 -60 -28 -75 -28 -76 -51 48 c-27 26
-80 71 -117 100 -43 33 -68 60 -68 73 0 10 -7 40 -14 66 -59 190 -68 226 -60
239 11 18 175 121 192 122 8 1 61 -46 120 -103z"/>
</g>
</svg>
